<svg width="512" height="512" viewBox="0 0 512 512" fill="none" xmlns="http://www.w3.org/2000/svg">
<path d="M246 48.7C222.1 49.9 196.6 55.4 175.1 64.1C127.1 83.3 86.2999 121.5 62.9999 169.2C51.1999 193.2 45.1999 214.8 42.8999 241C37.8999 297.9 55.5999 353.7 92.7999 398C111.1 419.8 132.2 436.4 159.8 450.4C174.6 457.9 195.6 465.8 197 464.4C197.5 463.9 197.7 457.6 197.3 449.3L196.7 435.2L190.6 432.9C162.6 422.8 131.4 400.2 112 375.9C90.1999 348.6 76.9999 317.9 72.3999 283.5C70.1999 267.6 70.9999 242 73.9999 226.5C78.9999 201 90.6999 175.2 107.8 152C115.7 141.3 138.8 118.7 150 110.7C162.1 102.1 184.1 91 197.9 86.6C228.3 76.7 262.4 74.7 291.3 81C327.7 89 367.5 112.3 391.8 140.1L399.2 148.5L379.9 148.8L360.6 149L355.6 144.1C342.9 131.7 320.4 117.7 303.2 111.6C269.7 99.7 231.5 100.9 197.5 114.9C153 133.2 118.2 173.4 104.7 222C93.8999 260.8 101.6 304.6 125.1 339C133.6 351.4 139.6 357.7 156.3 371.7C171.1 384.2 181.5 393.4 229.3 436.9C243 449.3 254.6 459.5 255.1 459.5C255.5 459.5 272.3 443.9 292.2 424.9C344 375.5 354.8 365.3 360.6 360.4L365.8 356L387.8 356.2L409.9 356.5L403.6 365C383.2 392.6 359.4 412.8 329.5 427.6C318.4 433.1 314.3 435.6 313.8 437.3C313.5 438.5 313.2 445.2 313.1 452.2C313 461.8 313.3 465 314.3 465C314.9 465 322.6 462.1 331.2 458.6C360.1 447 379.9 434 402 412C422.8 391.4 433.8 376 444.3 352.7C448.9 342.4 454 328.8 454 326.8C454 326.4 421 326 380.6 326H307.3L299.9 329C280.3 337.1 259.2 339.5 239 335.9C217.7 332 195.3 318.9 181.4 302.2C171.5 290.3 163.5 271 161.5 254C161.2 251 160.2 245 159.4 240.6C157.2 228.6 156.6 214.4 157.9 206.2C160.5 189.8 169.2 173.9 183.5 159.6C197.3 145.8 213.6 136.4 232.5 131.3C241.5 128.9 244.2 128.6 259.5 128.7C274.6 128.7 277.6 129 286.3 131.3C311.1 137.9 333.8 152.7 344.3 169.2C346.3 172.3 349.6 175.9 351.7 177.1L355.5 179.5L402.4 179.8C428.2 180 449.7 179.7 450.1 179.3C450.6 178.8 449.4 175.1 447.4 171C418.5 110.7 359 64.7 293.4 52C280.8 49.6 258.7 48 246 48.7ZM135 242.2C136.6 243.9 137 245.7 137 250.9C137 266.6 140.9 285.3 146.6 297.9C150.7 306.9 159.3 319 168 327.9C178.8 339.1 179.6 340.2 178.1 343.9C176.9 346.7 173.4 349 170.3 349C168 349 151.8 332.8 144.8 323.6C130.6 304.8 123 281.1 123 255.6C123 245.7 123.2 244.4 125.2 242.3C127.9 239.4 132.3 239.3 135 242.2Z" fill="currentColor"/>
<path d="M247.5 176.5C224.4 180.8 204.5 199.4 198.4 222.5C193.3 241.5 197.3 261.8 209.4 277.7C233.5 309.5 284.4 310.2 309.7 279C312.2 276 315 272 315.8 270.2C317.3 267.1 317.3 266.9 314.7 264.2C307.2 256.3 309 243.2 318.3 238.9C322.3 237.1 325.9 237 392.9 237H463.3L462.7 230.2C462.4 226.5 461.4 220 460.4 215.7L458.7 208H390.5C346.9 208 321.2 207.6 319.4 207C317.8 206.4 313.2 202.4 309.2 198.1C292.5 179.8 270.8 172.2 247.5 176.5ZM277.3 214.1C284 215.7 290.4 221 293.5 227.5C295.9 232.2 296.2 233.9 295.7 238.9C294.8 249.6 288.4 257.6 278.6 260.5C271.4 262.7 268.1 262.4 261.2 259C251.4 254.1 247.2 246.2 248.2 234.6C249 225.2 254.8 217.6 263.6 214.5C268.4 212.8 271.8 212.7 277.3 214.1Z" fill="currentColor"/>
<path d="M397.8 265C353.7 265.5 352.1 265.6 349.4 267.6C344.3 271.4 342.5 274.7 342.5 280.5C342.5 286.3 344.3 289.6 349.4 293.4C352.1 295.5 353.4 295.5 407 295.8L461.8 296L462.4 291.3C463.6 282.3 464.9 265.6 464.4 264.8C464.1 264.4 459.3 264.1 453.7 264.2C448.1 264.4 422.9 264.7 397.8 265Z" fill="currentColor"/>
</svg>
